<svg width="254" height="65" viewBox="0 0 254 65" fill="none" xmlns="http://www.w3.org/2000/svg">
<path d="M22.848 17.684V22.43H15.036V47H9.156V22.43H1.344V17.684H22.848ZM59.3942 23.732L52.5902 47H46.2482L42.0062 30.746L37.7642 47H31.3802L24.5342 23.732H30.4982L34.6142 41.456L39.0662 23.732H45.2822L49.6502 41.414L53.7662 23.732H59.3942ZM84.2057 34.862C84.2057 35.702 84.1497 36.458 84.0377 37.13H67.0277C67.1677 38.81 67.7557 40.126 68.7917 41.078C69.8277 42.03 71.1017 42.506 72.6137 42.506C74.7977 42.506 76.3517 41.568 77.2757 39.692H83.6177C82.9457 41.932 81.6577 43.78 79.7537 45.236C77.8497 46.664 75.5117 47.378 72.7397 47.378C70.4997 47.378 68.4837 46.888 66.6917 45.908C64.9277 44.9 63.5417 43.486 62.5337 41.666C61.5537 39.846 61.0637 37.746 61.0637 35.366C61.0637 32.958 61.5537 30.844 62.5337 29.024C63.5137 27.204 64.8857 25.804 66.6497 24.824C68.4137 23.844 70.4437 23.354 72.7397 23.354C74.9517 23.354 76.9257 23.83 78.6617 24.782C80.4257 25.734 81.7837 27.092 82.7357 28.856C83.7157 30.592 84.2057 32.594 84.2057 34.862ZM78.1157 33.182C78.0877 31.67 77.5417 30.466 76.4777 29.57C75.4137 28.646 74.1117 28.184 72.5717 28.184C71.1157 28.184 69.8837 28.632 68.8757 29.528C67.8957 30.396 67.2937 31.614 67.0697 33.182H78.1157ZM98.1996 41.582L104.08 23.732H110.338L101.728 47H94.5876L86.0196 23.732H92.3196L98.1996 41.582ZM123.342 41.582L129.222 23.732H135.48L126.87 47H119.73L111.162 23.732H117.462L123.342 41.582ZM161.043 23.732L146.637 58.004H140.379L145.419 46.412L136.095 23.732H142.689L148.695 39.986L154.785 23.732H161.043Z" fill="black"/>
<g opacity="0.3">
<rect width="48" height="48" rx="2" transform="matrix(0.999914 -0.0130896 -0.446666 0.894701 205.44 21.6283)" fill="#38BDF8"/>
<g clip-path="url(#clip0_90_20)">
<path d="M226.899 36.8468C226.783 37.079 226.592 37.3071 226.352 37.5021C226.111 37.6971 225.831 37.8503 225.547 37.9423C225.263 38.0343 224.987 38.061 224.755 38.019C224.523 37.977 224.345 37.8683 224.244 37.7064C224.142 37.5446 224.122 37.337 224.185 37.1099C224.248 36.8828 224.392 36.6463 224.598 36.4304C224.805 36.2146 225.064 36.029 225.345 35.8971C225.625 35.7652 225.913 35.693 226.173 35.6896C226.521 35.6851 226.793 35.8044 226.929 36.0214C227.065 36.2384 227.054 36.5353 226.899 36.8468ZM218.308 42.977C218.255 42.9107 218.179 42.861 218.086 42.8307C217.993 42.8005 217.883 42.7904 217.764 42.801C217.645 42.8116 217.519 42.8428 217.394 42.8926C217.268 42.9424 217.146 43.0099 217.034 43.0909L210.315 47.8454C210.2 47.9239 210.098 48.015 210.014 48.1132C209.93 48.2114 209.865 48.3147 209.825 48.4169C209.784 48.5191 209.767 48.6181 209.776 48.708C209.785 48.7979 209.819 48.8768 209.877 48.94C209.93 49.0063 210.005 49.056 210.099 49.0863C210.192 49.1165 210.301 49.1266 210.42 49.116C210.539 49.1054 210.665 49.0742 210.791 49.0244C210.916 48.9746 211.039 48.9071 211.151 48.8261L217.87 44.0716C217.984 43.9931 218.086 43.902 218.171 43.8038C218.255 43.7056 218.319 43.6023 218.36 43.5001C218.401 43.3979 218.417 43.2989 218.409 43.209C218.4 43.1191 218.365 43.0402 218.308 42.977V42.977ZM233.312 37.9294C233.248 38.0595 233.149 38.1883 233.023 38.3038C232.897 38.4193 232.748 38.5178 232.591 38.5902L229.695 39.9503L228.733 41.8781C227.38 44.5758 224.889 47.1771 221.805 49.1125C218.721 51.0479 215.295 52.1596 212.278 52.2042L200.904 52.3531C200.74 52.3544 200.6 52.3143 200.501 52.2372C200.401 52.1602 200.346 52.0494 200.342 51.9175C200.337 51.7857 200.384 51.6381 200.476 51.4917C200.567 51.3453 200.701 51.206 200.861 51.0898L216.918 39.4273L217.759 37.7442C218.459 36.3425 219.696 34.9799 221.247 33.9026C222.798 32.8253 224.56 32.1044 226.215 31.8702C227.87 31.636 229.309 31.9039 230.271 32.6256C231.233 33.3473 231.655 34.4751 231.461 35.8051L233.245 37.2789C233.332 37.3482 233.384 37.4441 233.395 37.5578C233.407 37.6715 233.378 37.7993 233.312 37.9294V37.9294ZM230.862 37.9615L229.658 36.9565C229.531 36.8545 229.482 36.6955 229.522 36.511C229.735 35.4996 229.48 34.6241 228.803 34.0489C228.126 33.4736 227.074 33.2382 225.845 33.3867C224.616 33.5352 223.294 34.0576 222.128 34.8556C220.961 35.6537 220.03 36.6726 219.508 37.7213L218.531 39.6784C218.443 39.8572 218.287 40.0316 218.09 40.1703L203.501 50.7636L213.06 50.6385C215.613 50.6025 218.512 49.6624 221.122 48.0243C223.733 46.3863 225.84 44.1842 226.983 41.901L228.156 39.5524C228.219 39.4223 228.319 39.2936 228.445 39.1781C228.571 39.0626 228.719 38.964 228.877 38.8916L230.862 37.9615Z" fill="white"/>
</g>
</g>
<g opacity="0.6">
<rect width="48" height="48" rx="2" transform="matrix(0.999914 -0.0130896 -0.446666 0.894701 201.44 11.6283)" fill="#38BDF8"/>
<g clip-path="url(#clip1_90_20)">
<path d="M222.899 26.8468C222.783 27.079 222.592 27.3071 222.352 27.5021C222.111 27.6971 221.831 27.8503 221.547 27.9423C221.263 28.0343 220.987 28.061 220.755 28.019C220.523 27.977 220.345 27.8683 220.244 27.7064C220.142 27.5446 220.122 27.337 220.185 27.1099C220.248 26.8828 220.392 26.6463 220.598 26.4304C220.805 26.2146 221.064 26.029 221.345 25.8971C221.625 25.7652 221.913 25.693 222.173 25.6896C222.521 25.6851 222.793 25.8044 222.929 26.0214C223.065 26.2384 223.054 26.5353 222.899 26.8468ZM214.308 32.977C214.255 32.9107 214.179 32.861 214.086 32.8307C213.993 32.8005 213.883 32.7904 213.764 32.801C213.645 32.8116 213.519 32.8428 213.394 32.8926C213.268 32.9424 213.146 33.0099 213.034 33.0909L206.315 37.8454C206.2 37.9239 206.098 38.015 206.014 38.1132C205.93 38.2114 205.865 38.3147 205.825 38.4169C205.784 38.5191 205.767 38.6181 205.776 38.708C205.785 38.7979 205.819 38.8768 205.877 38.94C205.93 39.0063 206.005 39.056 206.099 39.0863C206.192 39.1165 206.301 39.1266 206.42 39.116C206.539 39.1054 206.665 39.0742 206.791 39.0244C206.916 38.9746 207.039 38.9071 207.151 38.8261L213.87 34.0716C213.984 33.9931 214.086 33.902 214.171 33.8038C214.255 33.7056 214.319 33.6023 214.36 33.5001C214.401 33.3979 214.417 33.2989 214.409 33.209C214.4 33.1191 214.365 33.0402 214.308 32.977V32.977ZM229.312 27.9294C229.248 28.0595 229.149 28.1883 229.023 28.3038C228.897 28.4193 228.748 28.5178 228.591 28.5902L225.695 29.9503L224.733 31.8781C223.38 34.5758 220.889 37.1771 217.805 39.1125C214.721 41.0479 211.295 42.1596 208.278 42.2042L196.904 42.3531C196.74 42.3544 196.6 42.3143 196.501 42.2372C196.401 42.1602 196.346 42.0494 196.342 41.9175C196.337 41.7857 196.384 41.6381 196.476 41.4917C196.567 41.3453 196.701 41.206 196.861 41.0898L212.918 29.4273L213.759 27.7442C214.459 26.3425 215.696 24.9799 217.247 23.9026C218.798 22.8253 220.56 22.1044 222.215 21.8702C223.87 21.636 225.309 21.9039 226.271 22.6256C227.233 23.3473 227.655 24.4751 227.461 25.8051L229.245 27.2789C229.332 27.3482 229.384 27.4441 229.395 27.5578C229.407 27.6715 229.378 27.7993 229.312 27.9294V27.9294ZM226.862 27.9615L225.658 26.9565C225.531 26.8545 225.482 26.6955 225.522 26.511C225.735 25.4996 225.48 24.6241 224.803 24.0489C224.126 23.4736 223.074 23.2382 221.845 23.3867C220.616 23.5352 219.294 24.0576 218.128 24.8556C216.961 25.6537 216.03 26.6726 215.508 27.7213L214.531 29.6784C214.443 29.8572 214.287 30.0316 214.09 30.1703L199.501 40.7636L209.06 40.6385C211.613 40.6025 214.512 39.6624 217.122 38.0243C219.733 36.3863 221.84 34.1842 222.983 31.901L224.156 29.5524C224.219 29.4223 224.319 29.2936 224.445 29.1781C224.571 29.0626 224.719 28.964 224.877 28.8916L226.862 27.9615Z" fill="white"/>
</g>
</g>
<rect width="48" height="48" rx="2" transform="matrix(0.999914 -0.0130896 -0.446666 0.894701 197.44 0.628296)" fill="#38BDF8"/>
<g clip-path="url(#clip2_90_20)">
<path d="M218.899 15.8468C218.783 16.079 218.592 16.3071 218.352 16.5021C218.111 16.6971 217.831 16.8503 217.547 16.9423C217.263 17.0343 216.987 17.061 216.755 17.019C216.523 16.977 216.345 16.8683 216.244 16.7064C216.142 16.5446 216.122 16.337 216.185 16.1099C216.248 15.8828 216.392 15.6463 216.598 15.4304C216.805 15.2146 217.064 15.029 217.345 14.8971C217.625 14.7652 217.913 14.693 218.173 14.6896C218.521 14.6851 218.793 14.8044 218.929 15.0214C219.065 15.2384 219.054 15.5353 218.899 15.8468ZM210.308 21.977C210.255 21.9107 210.179 21.861 210.086 21.8307C209.993 21.8005 209.883 21.7904 209.764 21.801C209.645 21.8116 209.519 21.8428 209.394 21.8926C209.268 21.9424 209.146 22.0099 209.034 22.0909L202.315 26.8454C202.2 26.9239 202.098 27.015 202.014 27.1132C201.93 27.2114 201.865 27.3147 201.825 27.4169C201.784 27.5191 201.767 27.6181 201.776 27.708C201.785 27.7979 201.819 27.8768 201.877 27.94C201.93 28.0063 202.005 28.056 202.099 28.0863C202.192 28.1165 202.301 28.1266 202.42 28.116C202.539 28.1054 202.665 28.0742 202.791 28.0244C202.916 27.9746 203.039 27.9071 203.151 27.8261L209.87 23.0716C209.984 22.9931 210.086 22.902 210.171 22.8038C210.255 22.7056 210.319 22.6023 210.36 22.5001C210.401 22.3979 210.417 22.2989 210.409 22.209C210.4 22.1191 210.365 22.0402 210.308 21.977V21.977ZM225.312 16.9294C225.248 17.0595 225.149 17.1883 225.023 17.3038C224.897 17.4193 224.748 17.5178 224.591 17.5902L221.695 18.9503L220.733 20.8781C219.38 23.5758 216.889 26.1771 213.805 28.1125C210.721 30.0479 207.295 31.1596 204.278 31.2042L192.904 31.3531C192.74 31.3544 192.6 31.3143 192.501 31.2372C192.401 31.1602 192.346 31.0494 192.342 30.9175C192.337 30.7857 192.384 30.6381 192.476 30.4917C192.567 30.3453 192.701 30.206 192.861 30.0898L208.918 18.4273L209.759 16.7442C210.459 15.3425 211.696 13.9799 213.247 12.9026C214.798 11.8253 216.56 11.1044 218.215 10.8702C219.87 10.636 221.309 10.9039 222.271 11.6256C223.233 12.3473 223.655 13.4751 223.461 14.8051L225.245 16.2789C225.332 16.3482 225.384 16.4441 225.395 16.5578C225.407 16.6715 225.378 16.7993 225.312 16.9294V16.9294ZM222.862 16.9615L221.658 15.9565C221.531 15.8545 221.482 15.6955 221.522 15.511C221.735 14.4996 221.48 13.6241 220.803 13.0489C220.126 12.4736 219.074 12.2382 217.845 12.3867C216.616 12.5352 215.294 13.0576 214.128 13.8556C212.961 14.6537 212.03 15.6726 211.508 16.7213L210.531 18.6784C210.443 18.8572 210.287 19.0316 210.09 19.1703L195.501 29.7636L205.06 29.6385C207.613 29.6025 210.512 28.6624 213.122 27.0243C215.733 25.3863 217.84 23.1842 218.983 20.901L220.156 18.5524C220.219 18.4223 220.319 18.2936 220.445 18.1781C220.571 18.0626 220.719 17.964 220.877 17.8916L222.862 16.9615Z" fill="white"/>
</g>
<defs>
<clipPath id="clip0_90_20">
<rect width="28" height="28" fill="white" transform="matrix(0.999914 -0.0130896 -0.446666 0.894701 210.972 30.4444)"/>
</clipPath>
<clipPath id="clip1_90_20">
<rect width="28" height="28" fill="white" transform="matrix(0.999914 -0.0130896 -0.446666 0.894701 206.972 20.4444)"/>
</clipPath>
<clipPath id="clip2_90_20">
<rect width="28" height="28" fill="white" transform="matrix(0.999914 -0.0130896 -0.446666 0.894701 202.972 9.4444)"/>
</clipPath>
</defs>
</svg>
