<svg width="78" height="65" viewBox="0 0 78 65" fill="none" xmlns="http://www.w3.org/2000/svg">
<g opacity="0.3">
<rect width="48" height="48" rx="2" transform="matrix(0.999914 -0.0130896 -0.446666 0.894701 29.4399 21.6283)" fill="#38BDF8"/>
<g clip-path="url(#clip0_90_34)">
<path d="M50.8987 36.8468C50.7828 37.079 50.5924 37.3071 50.3518 37.5021C50.1112 37.6971 49.8311 37.8503 49.5469 37.9423C49.2627 38.0343 48.9873 38.061 48.7553 38.019C48.5233 37.977 48.3453 37.8683 48.2438 37.7064C48.1422 37.5446 48.1217 37.337 48.1848 37.1099C48.2479 36.8828 48.3917 36.6463 48.5982 36.4304C48.8046 36.2146 49.0644 36.029 49.3446 35.8971C49.6249 35.7652 49.913 35.693 50.1726 35.6896C50.5206 35.6851 50.7927 35.8044 50.9289 36.0214C51.065 36.2384 51.0542 36.5353 50.8987 36.8468ZM42.3079 42.977C42.255 42.9107 42.1795 42.861 42.0861 42.8307C41.9926 42.8005 41.8832 42.7904 41.7642 42.801C41.6453 42.8116 41.5193 42.8428 41.3939 42.8926C41.2684 42.9424 41.1461 43.0099 41.0342 43.0909L34.3146 47.8454C34.2005 47.9239 34.0983 48.015 34.0141 48.1132C33.9299 48.2114 33.8654 48.3147 33.8245 48.4169C33.7836 48.5191 33.7672 48.6181 33.7762 48.708C33.7851 48.7979 33.8194 48.8768 33.8768 48.94C33.9297 49.0063 34.0052 49.056 34.0986 49.0863C34.192 49.1165 34.3015 49.1266 34.4204 49.116C34.5394 49.1054 34.6653 49.0742 34.7908 49.0244C34.9162 48.9746 35.0386 48.9071 35.1505 48.8261L41.8701 44.0716C41.9842 43.9931 42.0864 43.902 42.1706 43.8038C42.2548 43.7056 42.3193 43.6023 42.3602 43.5001C42.401 43.3979 42.4175 43.2989 42.4085 43.209C42.3995 43.1191 42.3653 43.0402 42.3079 42.977V42.977ZM57.3119 37.9294C57.2482 38.0595 57.1488 38.1883 57.0228 38.3038C56.8967 38.4193 56.7482 38.5178 56.5908 38.5902L53.6953 39.9503L52.7329 41.8781C51.3804 44.5758 48.8894 47.1771 45.8053 49.1125C42.7212 51.0479 39.2954 52.1596 36.2781 52.2042L24.904 52.3531C24.74 52.3544 24.6003 52.3143 24.5009 52.2372C24.4014 52.1602 24.3463 52.0494 24.3418 51.9175C24.3373 51.7857 24.3837 51.6381 24.4755 51.4917C24.5673 51.3453 24.701 51.206 24.8611 51.0898L40.9183 39.4273L41.7586 37.7442C42.4588 36.3425 43.6962 34.9799 45.2471 33.9026C46.7981 32.8253 48.5603 32.1044 50.2152 31.8702C51.8701 31.636 53.3086 31.9039 54.2706 32.6256C55.2326 33.3473 55.6547 34.4751 55.4605 35.8051L57.2455 37.2789C57.3321 37.3482 57.3836 37.4441 57.3952 37.5578C57.4068 37.6715 57.3781 37.7993 57.3119 37.9294V37.9294ZM54.8621 37.9615L53.658 36.9565C53.531 36.8545 53.4824 36.6955 53.5218 36.511C53.7354 35.4996 53.4798 34.6241 52.8029 34.0489C52.1259 33.4736 51.0743 33.2382 49.8453 33.3867C48.6163 33.5352 47.2944 34.0576 46.1276 34.8556C44.9609 35.6537 44.0296 36.6726 43.5085 37.7213L42.5314 39.6784C42.4435 39.8572 42.2871 40.0316 42.0903 40.1703L27.5012 50.7636L37.0597 50.6385C39.6126 50.6025 42.5123 49.6624 45.1225 48.0243C47.7327 46.3863 49.8404 44.1842 50.9831 41.901L52.1556 39.5524C52.2192 39.4223 52.3186 39.2936 52.4447 39.1781C52.5707 39.0626 52.7193 38.964 52.8766 38.8916L54.8621 37.9615Z" fill="white"/>
</g>
</g>
<g opacity="0.6">
<rect width="48" height="48" rx="2" transform="matrix(0.999914 -0.0130896 -0.446666 0.894701 25.4399 11.6283)" fill="#38BDF8"/>
<g clip-path="url(#clip1_90_34)">
<path d="M46.8987 26.8468C46.7828 27.079 46.5924 27.3071 46.3518 27.5021C46.1112 27.6971 45.8311 27.8503 45.5469 27.9423C45.2627 28.0343 44.9873 28.061 44.7553 28.019C44.5233 27.977 44.3453 27.8683 44.2438 27.7064C44.1422 27.5446 44.1217 27.337 44.1848 27.1099C44.2479 26.8828 44.3917 26.6463 44.5982 26.4304C44.8046 26.2146 45.0644 26.029 45.3446 25.8971C45.6249 25.7652 45.913 25.693 46.1726 25.6896C46.5206 25.6851 46.7927 25.8044 46.9289 26.0214C47.065 26.2384 47.0542 26.5353 46.8987 26.8468ZM38.3079 32.977C38.255 32.9107 38.1795 32.861 38.0861 32.8307C37.9926 32.8005 37.8832 32.7904 37.7642 32.801C37.6453 32.8116 37.5193 32.8428 37.3939 32.8926C37.2684 32.9424 37.1461 33.0099 37.0342 33.0909L30.3146 37.8454C30.2005 37.9239 30.0983 38.015 30.0141 38.1132C29.9299 38.2114 29.8654 38.3147 29.8245 38.4169C29.7836 38.5191 29.7672 38.6181 29.7762 38.708C29.7851 38.7979 29.8194 38.8768 29.8768 38.94C29.9297 39.0063 30.0052 39.056 30.0986 39.0863C30.192 39.1165 30.3015 39.1266 30.4204 39.116C30.5394 39.1054 30.6653 39.0742 30.7908 39.0244C30.9162 38.9746 31.0386 38.9071 31.1505 38.8261L37.8701 34.0716C37.9842 33.9931 38.0864 33.902 38.1706 33.8038C38.2548 33.7056 38.3193 33.6023 38.3602 33.5001C38.401 33.3979 38.4175 33.2989 38.4085 33.209C38.3995 33.1191 38.3653 33.0402 38.3079 32.977V32.977ZM53.3119 27.9294C53.2482 28.0595 53.1488 28.1883 53.0228 28.3038C52.8967 28.4193 52.7482 28.5178 52.5908 28.5902L49.6953 29.9503L48.7329 31.8781C47.3804 34.5758 44.8894 37.1771 41.8053 39.1125C38.7212 41.0479 35.2954 42.1596 32.2781 42.2042L20.904 42.3531C20.74 42.3544 20.6003 42.3143 20.5009 42.2372C20.4014 42.1602 20.3463 42.0494 20.3418 41.9175C20.3373 41.7857 20.3837 41.6381 20.4755 41.4917C20.5673 41.3453 20.701 41.206 20.8611 41.0898L36.9183 29.4273L37.7586 27.7442C38.4588 26.3425 39.6962 24.9799 41.2471 23.9026C42.7981 22.8253 44.5603 22.1044 46.2152 21.8702C47.8701 21.636 49.3086 21.9039 50.2706 22.6256C51.2326 23.3473 51.6547 24.4751 51.4605 25.8051L53.2455 27.2789C53.3321 27.3482 53.3836 27.4441 53.3952 27.5578C53.4068 27.6715 53.3781 27.7993 53.3119 27.9294V27.9294ZM50.8621 27.9615L49.658 26.9565C49.531 26.8545 49.4824 26.6955 49.5218 26.511C49.7354 25.4996 49.4798 24.6241 48.8029 24.0489C48.1259 23.4736 47.0743 23.2382 45.8453 23.3867C44.6163 23.5352 43.2944 24.0576 42.1276 24.8556C40.9609 25.6537 40.0296 26.6726 39.5085 27.7213L38.5314 29.6784C38.4435 29.8572 38.2871 30.0316 38.0903 30.1703L23.5012 40.7636L33.0597 40.6385C35.6126 40.6025 38.5123 39.6624 41.1225 38.0243C43.7327 36.3863 45.8404 34.1842 46.9831 31.901L48.1556 29.5524C48.2192 29.4223 48.3186 29.2936 48.4447 29.1781C48.5707 29.0626 48.7193 28.964 48.8766 28.8916L50.8621 27.9615Z" fill="white"/>
</g>
</g>
<rect width="48" height="48" rx="2" transform="matrix(0.999914 -0.0130896 -0.446666 0.894701 21.4399 0.628296)" fill="#38BDF8"/>
<g clip-path="url(#clip2_90_34)">
<path d="M42.8987 15.8468C42.7828 16.079 42.5924 16.3071 42.3518 16.5021C42.1112 16.6971 41.8311 16.8503 41.5469 16.9423C41.2627 17.0343 40.9873 17.061 40.7553 17.019C40.5233 16.977 40.3453 16.8683 40.2438 16.7064C40.1422 16.5446 40.1217 16.337 40.1848 16.1099C40.2479 15.8828 40.3917 15.6463 40.5982 15.4304C40.8046 15.2146 41.0644 15.029 41.3446 14.8971C41.6249 14.7652 41.913 14.693 42.1726 14.6896C42.5206 14.6851 42.7927 14.8044 42.9289 15.0214C43.065 15.2384 43.0542 15.5353 42.8987 15.8468ZM34.3079 21.977C34.255 21.9107 34.1795 21.861 34.0861 21.8307C33.9926 21.8005 33.8832 21.7904 33.7642 21.801C33.6453 21.8116 33.5193 21.8428 33.3939 21.8926C33.2684 21.9424 33.1461 22.0099 33.0342 22.0909L26.3146 26.8454C26.2005 26.9239 26.0983 27.015 26.0141 27.1132C25.9299 27.2114 25.8654 27.3147 25.8245 27.4169C25.7836 27.5191 25.7672 27.6181 25.7762 27.708C25.7851 27.7979 25.8194 27.8768 25.8768 27.94C25.9297 28.0063 26.0052 28.056 26.0986 28.0863C26.192 28.1165 26.3015 28.1266 26.4204 28.116C26.5394 28.1054 26.6653 28.0742 26.7908 28.0244C26.9162 27.9746 27.0386 27.9071 27.1505 27.8261L33.8701 23.0716C33.9842 22.9931 34.0864 22.902 34.1706 22.8038C34.2548 22.7056 34.3193 22.6023 34.3602 22.5001C34.401 22.3979 34.4175 22.2989 34.4085 22.209C34.3995 22.1191 34.3653 22.0402 34.3079 21.977V21.977ZM49.3119 16.9294C49.2482 17.0595 49.1488 17.1883 49.0228 17.3038C48.8967 17.4193 48.7482 17.5178 48.5908 17.5902L45.6953 18.9503L44.7329 20.8781C43.3804 23.5758 40.8894 26.1771 37.8053 28.1125C34.7212 30.0479 31.2954 31.1596 28.2781 31.2042L16.904 31.3531C16.74 31.3544 16.6003 31.3143 16.5009 31.2372C16.4014 31.1602 16.3463 31.0494 16.3418 30.9175C16.3373 30.7857 16.3837 30.6381 16.4755 30.4917C16.5673 30.3453 16.701 30.206 16.8611 30.0898L32.9183 18.4273L33.7586 16.7442C34.4588 15.3425 35.6962 13.9799 37.2471 12.9026C38.7981 11.8253 40.5603 11.1044 42.2152 10.8702C43.8701 10.636 45.3086 10.9039 46.2706 11.6256C47.2326 12.3473 47.6547 13.4751 47.4605 14.8051L49.2455 16.2789C49.3321 16.3482 49.3836 16.4441 49.3952 16.5578C49.4068 16.6715 49.3781 16.7993 49.3119 16.9294V16.9294ZM46.8621 16.9615L45.658 15.9565C45.531 15.8545 45.4824 15.6955 45.5218 15.511C45.7354 14.4996 45.4798 13.6241 44.8029 13.0489C44.1259 12.4736 43.0743 12.2382 41.8453 12.3867C40.6163 12.5352 39.2944 13.0576 38.1276 13.8556C36.9609 14.6537 36.0296 15.6726 35.5085 16.7213L34.5314 18.6784C34.4435 18.8572 34.2871 19.0316 34.0903 19.1703L19.5012 29.7636L29.0597 29.6385C31.6126 29.6025 34.5123 28.6624 37.1225 27.0243C39.7327 25.3863 41.8404 23.1842 42.9831 20.901L44.1556 18.5524C44.2192 18.4223 44.3186 18.2936 44.4447 18.1781C44.5707 18.0626 44.7193 17.964 44.8766 17.8916L46.8621 16.9615Z" fill="white"/>
</g>
<defs>
<clipPath id="clip0_90_34">
<rect width="28" height="28" fill="white" transform="matrix(0.999914 -0.0130896 -0.446666 0.894701 34.9724 30.4444)"/>
</clipPath>
<clipPath id="clip1_90_34">
<rect width="28" height="28" fill="white" transform="matrix(0.999914 -0.0130896 -0.446666 0.894701 30.9724 20.4444)"/>
</clipPath>
<clipPath id="clip2_90_34">
<rect width="28" height="28" fill="white" transform="matrix(0.999914 -0.0130896 -0.446666 0.894701 26.9724 9.4444)"/>
</clipPath>
</defs>
</svg>
